{
	"asset":{
		"generator":"Khronos glTF Blender I/O v4.0.44",
		"version":"2.0"
	},
	"scene":0,
	"scenes":[
		{
			"name":"Scene",
			"nodes":[
				0
			]
		}
	],
	"nodes":[
		{
			"mesh":0,
			"name":"Aeromine LOGO"
		}
	],
	"materials":[
		{
			"doubleSided":true,
			"name":"Material.001",
			"pbrMetallicRoughness":{
				"baseColorTexture":{
					"index":0
				},
				"metallicFactor":0.9064516425132751,
				"roughnessFactor":0.5
			}
		},
		{
			"doubleSided":true,
			"name":"Material.002",
			"pbrMetallicRoughness":{
				"baseColorFactor":[
					0.6055108308792114,
					0.48499977588653564,
					0,
					1
				],
				"metallicFactor":0,
				"roughnessFactor":0.5032258033752441
			}
		}
	],
	"meshes":[
		{
			"name":"Aeromine LOGO",
			"primitives":[
				{
					"attributes":{
						"POSITION":0,
						"NORMAL":1,
						"TEXCOORD_0":2
					},
					"indices":3,
					"material":0
				},
				{
					"attributes":{
						"POSITION":4,
						"NORMAL":5,
						"TEXCOORD_0":6
					},
					"indices":7,
					"material":1
				}
			]
		}
	],
	"textures":[
		{
			"sampler":0,
			"source":0
		}
	],
	"images":[
		{
			"mimeType":"image/png",
			"name":"Baked",
			"uri":"textures/Baked.png"
		}
	],
	"accessors":[
		{
			"bufferView":0,
			"componentType":5126,
			"count":4640,
			"max":[
				5.667782306671143,
				0.3322319984436035,
				-0.9088529348373413
			],
			"min":[
				0.8464437127113342,
				-1.8272899496051662e-18,
				-5.705883026123047
			],
			"type":"VEC3"
		},
		{
			"bufferView":1,
			"componentType":5126,
			"count":4640,
			"type":"VEC3"
		},
		{
			"bufferView":2,
			"componentType":5126,
			"count":4640,
			"type":"VEC2"
		},
		{
			"bufferView":3,
			"componentType":5123,
			"count":7584,
			"type":"SCALAR"
		},
		{
			"bufferView":4,
			"componentType":5126,
			"count":570,
			"max":[
				6.6251912117004395,
				7.219114108078224e-16,
				0
			],
			"min":[
				0,
				0,
				-6.59910774230957
			],
			"type":"VEC3"
		},
		{
			"bufferView":5,
			"componentType":5126,
			"count":570,
			"type":"VEC3"
		},
		{
			"bufferView":6,
			"componentType":5126,
			"count":570,
			"type":"VEC2"
		},
		{
			"bufferView":7,
			"componentType":5123,
			"count":1740,
			"type":"SCALAR"
		}
	],
	"bufferViews":[
		{
			"buffer":0,
			"byteLength":55680,
			"byteOffset":0,
			"target":34962
		},
		{
			"buffer":0,
			"byteLength":55680,
			"byteOffset":55680,
			"target":34962
		},
		{
			"buffer":0,
			"byteLength":37120,
			"byteOffset":111360,
			"target":34962
		},
		{
			"buffer":0,
			"byteLength":15168,
			"byteOffset":148480,
			"target":34963
		},
		{
			"buffer":0,
			"byteLength":6840,
			"byteOffset":163648,
			"target":34962
		},
		{
			"buffer":0,
			"byteLength":6840,
			"byteOffset":170488,
			"target":34962
		},
		{
			"buffer":0,
			"byteLength":4560,
			"byteOffset":177328,
			"target":34962
		},
		{
			"buffer":0,
			"byteLength":3480,
			"byteOffset":181888,
			"target":34963
		}
	],
	"samplers":[
		{
			"magFilter":9729,
			"minFilter":9987
		}
	],
	"buffers":[
		{
			"byteLength":185368,
			"uri":"color_logo.bin"
		}
	]
}
